<!-- vercel -->
<!-- <svg width="283" height="64" viewBox="0 0 283 64" fill="none" 
    xmlns="http://www.w3.org/2000/svg">
    <path d="M141.04 16c-11.04 0-19 7.2-19 18s8.96 18 20 18c6.67 0 12.55-2.64 16.19-7.09l-7.65-4.42c-2.02 2.21-5.09 3.5-8.54 3.5-4.79 0-8.86-2.5-10.37-6.5h28.02c.22-1.12.35-2.28.35-3.5 0-10.79-7.96-17.99-19-17.99zm-9.46 14.5c1.25-3.99 4.67-6.5 9.45-6.5 4.79 0 8.21 2.51 9.45 6.5h-18.9zM248.72 16c-11.04 0-19 7.2-19 18s8.96 18 20 18c6.67 0 12.55-2.64 16.19-7.09l-7.65-4.42c-2.02 2.21-5.09 3.5-8.54 3.5-4.79 0-8.86-2.5-10.37-6.5h28.02c.22-1.12.35-2.28.35-3.5 0-10.79-7.96-17.99-19-17.99zm-9.45 14.5c1.25-3.99 4.67-6.5 9.45-6.5 4.79 0 8.21 2.51 9.45 6.5h-18.9zM200.24 34c0 6 3.92 10 10 10 4.12 0 7.21-1.87 8.8-4.92l7.68 4.43c-3.18 5.3-9.14 8.49-16.48 8.49-11.05 0-19-7.2-19-18s7.96-18 19-18c7.34 0 13.29 3.19 16.48 8.49l-7.68 4.43c-1.59-3.05-4.68-4.92-8.8-4.92-6.07 0-10 4-10 10zm82.48-29v46h-9V5h9zM36.95 0L73.9 64H0L36.95 0zm92.38 5l-27.71 48L73.91 5H84.3l17.32 30 17.32-30h10.39zm58.91 12v9.69c-1-.29-2.06-.49-3.2-.49-5.81 0-10 4-10 10V51h-9V17h9v9.2c0-5.08 5.91-9.2 13.2-9.2z" fill="#000"/>
</svg> -->

<!-- github -->
<svg xmlns="http://www.w3.org/2000/svg" width="24" height="24" viewBox="0 0 24 24"><path d="M12 0c-6.626 0-12 5.373-12 12 0 5.302 3.438 9.8 8.207 11.387.599.111.793-.261.793-.577v-2.234c-3.338.726-4.033-1.416-4.033-1.416-.546-1.387-1.333-1.756-1.333-1.756-1.089-.745.083-.729.083-.729 1.205.084 1.839 1.237 1.839 1.237 1.07 1.834 2.807 1.304 3.492.997.107-.775.418-1.305.762-1.604-2.665-.305-5.467-1.334-5.467-5.931 0-1.311.469-2.381 1.236-3.221-.124-.303-.535-1.524.117-3.176 0 0 1.008-.322 3.301 1.23.957-.266 1.983-.399 3.003-.404 1.02.005 2.047.138 3.006.404 2.291-1.552 3.297-1.23 3.297-1.23.653 1.653.242 2.874.118 3.176.77.84 1.235 1.911 1.235 3.221 0 4.609-2.807 5.624-5.479 5.921.43.372.823 1.102.823 2.222v3.293c0 .319.192.694.801.576 4.765-1.589 8.199-6.086 8.199-11.386 0-6.627-5.373-12-12-12z"/></svg>